<?xml version="1.0" standalone="no"?>
<!DOCTYPE svg PUBLIC "-//W3C//DTD SVG 20010904//EN"
 "http://www.w3.org/TR/2001/REC-SVG-20010904/DTD/svg10.dtd">
<svg version="1.0" xmlns="http://www.w3.org/2000/svg"
 width="512.000000pt" height="512.000000pt" viewBox="0 0 512.000000 512.000000"
 preserveAspectRatio="xMidYMid meet">
<metadata>
Created by potrace 1.14, written by Peter Selinger 2001-2017
</metadata>
<g transform="translate(0.000000,512.000000) scale(0.100000,-0.100000)"
fill="#000000" stroke="none">
<path d="M0 2560 l0 -2560 2560 0 2560 0 0 2560 0 2560 -2560 0 -2560 0 0
-2560z m1968 524 c12 -8 22 -25 22 -37 0 -25 -473 -1032 -497 -1059 -18 -21
-63 -24 -81 -6 -7 7 -12 21 -12 33 0 27 476 1034 502 1063 25 26 36 27 66 6z
m1850 -511 l2 -423 38 0 c45 0 62 -14 62 -50 0 -43 -16 -50 -122 -50 l-98 0 0
46 0 46 -36 -32 c-110 -96 -295 -105 -412 -20 -165 119 -188 372 -49 527 117
129 353 147 470 36 l27 -27 0 137 0 137 -46 0 c-60 0 -84 14 -84 48 0 48 14
53 135 50 l110 -3 3 -422z m-1321 327 c8 -15 13 -64 13 -122 l0 -98 170 0
c157 0 170 -1 180 -19 14 -27 13 -47 -6 -65 -13 -13 -44 -16 -180 -16 l-164 0
0 -162 c0 -90 5 -180 11 -201 23 -85 118 -95 292 -33 90 32 112 37 133 28 31
-15 33 -63 3 -91 -39 -36 -165 -72 -270 -78 -115 -7 -179 10 -226 60 -56 59
-58 67 -61 280 l-4 197 -78 0 c-83 0 -110 12 -110 50 0 38 27 50 111 50 l79 0
0 106 c0 128 8 146 58 142 27 -2 40 -9 49 -28z m-1376 -40 c24 -13 25 -61 2
-82 -10 -9 -143 -71 -295 -139 -152 -68 -274 -127 -270 -131 4 -3 124 -59 267
-124 143 -65 272 -126 288 -136 44 -31 33 -98 -17 -98 -31 0 -678 299 -706
326 -20 20 -23 28 -14 51 8 25 45 44 309 165 290 133 391 176 408 177 5 1 17
-4 28 -9z m3285 -141 c171 -78 325 -149 343 -160 37 -22 42 -60 11 -87 -25
-21 -654 -311 -692 -319 -36 -7 -58 12 -58 48 0 19 8 34 24 44 13 9 142 70
287 136 145 66 267 123 271 127 4 4 -110 60 -255 125 -319 143 -327 147 -327
186 0 35 24 53 60 45 14 -3 165 -68 336 -145z"/>
<path d="M3361 2588 c-23 -13 -57 -43 -75 -66 -28 -39 -31 -53 -34 -126 -5
-97 14 -144 73 -194 102 -84 265 -62 340 46 28 41 30 50 30 136 0 85 -2 96
-27 132 -47 67 -89 89 -182 92 -69 3 -87 0 -125 -20z"/>
</g>
</svg>
